<svg width="174" height="95" viewBox="0 0 174 95" fill="none" xmlns="http://www.w3.org/2000/svg">
<path d="M20.3638 84.4208V9.88675C20.3638 4.51463 16.0089 0.159668 10.6368 0.159668C5.26463 0.159668 0.909668 4.51462 0.909668 9.88674V84.4208C0.909668 89.7929 5.26463 94.1479 10.6368 94.1479C16.0089 94.1479 20.3638 89.7929 20.3638 84.4208Z" fill="#313139"/>
<path d="M13.4864 80.3931H7.7871C3.9888 80.3931 0.909668 83.4722 0.909668 87.2705C0.909668 91.0688 3.9888 94.1479 7.7871 94.1479H13.4864C17.2847 94.1479 20.3638 91.0688 20.3638 87.2705C20.3638 83.4722 17.2847 80.3931 13.4864 80.3931Z" fill="#313139"/>
<path d="M143.211 84.4208V9.88675C143.211 4.51463 138.856 0.159668 133.484 0.159668C128.112 0.159668 123.757 4.51462 123.757 9.88674V84.4208C123.757 89.7929 128.112 94.1479 133.484 94.1479C138.856 94.1479 143.211 89.7929 143.211 84.4208Z" fill="#313139"/>
<path d="M173.852 84.4208V9.88675C173.852 4.51463 169.497 0.159668 164.125 0.159668C158.753 0.159668 154.398 4.51462 154.398 9.88674V84.4208C154.398 89.7929 158.753 94.1479 164.125 94.1479C169.497 94.1479 173.852 89.7929 173.852 84.4208Z" fill="#313139"/>
<path d="M50.9547 84.4208V9.88675C50.9547 4.51463 46.5997 0.159668 41.2276 0.159668C35.8555 0.159668 31.5005 4.51462 31.5005 9.88674V84.4208C31.5005 89.7929 35.8555 94.1479 41.2276 94.1479C46.5997 94.1479 50.9547 89.7929 50.9547 84.4208Z" fill="#313139"/>
<path d="M81.5455 84.4208V9.88675C81.5455 4.51463 77.1905 0.159668 71.8184 0.159668C66.4463 0.159668 62.0913 4.51462 62.0913 9.88674V84.4208C62.0913 89.7929 66.4463 94.1479 71.8184 94.1479C77.1905 94.1479 81.5455 89.7929 81.5455 84.4208Z" fill="#313139"/>
<path d="M112.137 84.4208V9.88675C112.137 4.51463 107.782 0.159668 102.41 0.159668C97.0376 0.159668 92.6826 4.51462 92.6826 9.88674V84.4208C92.6826 89.7929 97.0376 94.1479 102.41 94.1479C107.782 94.1479 112.137 89.7929 112.137 84.4208Z" fill="#313139"/>
<path d="M173.852 84.4109V29.1397C173.852 23.7676 169.497 19.4126 164.125 19.4126C158.753 19.4126 154.398 23.7676 154.398 29.1397V84.4109C154.398 89.783 158.753 94.1379 164.125 94.1379C169.497 94.1379 173.852 89.783 173.852 84.4109Z" fill="url(#paint0_linear_55_596)"/>
<path d="M142.889 84.2396V38.9271C142.889 33.6439 138.606 29.3611 133.323 29.3611C128.04 29.3611 123.757 33.6439 123.757 38.9271V84.2396C123.757 89.5227 128.04 93.8055 133.323 93.8055C138.606 93.8055 142.889 89.5227 142.889 84.2396Z" fill="url(#paint1_linear_55_596)"/>
<path d="M111.673 84.2395V55.0381C111.673 49.755 107.391 45.4722 102.107 45.4722C96.8243 45.4722 92.5415 49.755 92.5415 55.0381V84.2395C92.5415 89.5227 96.8243 93.8055 102.107 93.8055C107.391 93.8055 111.673 89.5227 111.673 84.2395Z" fill="url(#paint2_linear_55_596)"/>
<path d="M81.4654 84.2394V67.1214C81.4654 61.8383 77.1826 57.5554 71.8995 57.5554C66.6163 57.5554 62.3335 61.8383 62.3335 67.1214V84.2394C62.3335 89.5226 66.6163 93.8054 71.8995 93.8054C77.1826 93.8054 81.4654 89.5226 81.4654 84.2394Z" fill="url(#paint3_linear_55_596)"/>
<path d="M42.1945 75.6804H41.1875C36.1824 75.6804 32.125 79.7378 32.125 84.7429C32.125 89.748 36.1824 93.8054 41.1875 93.8054H42.1944C47.1995 93.8054 51.2569 89.748 51.2569 84.7429C51.2569 79.7378 47.1995 75.6804 42.1945 75.6804Z" fill="url(#paint4_linear_55_596)"/>
<defs>
<linearGradient id="paint0_linear_55_596" x1="165.545" y1="3.18062" x2="195.366" y2="19.5544" gradientUnits="userSpaceOnUse">
<stop stop-color="#0B4AA4" stop-opacity="0.64"/>
<stop offset="0.9999" stop-color="#8154FE"/>
</linearGradient>
<linearGradient id="paint1_linear_55_596" x1="134.719" y1="15.3623" x2="162.139" y2="32.5301" gradientUnits="userSpaceOnUse">
<stop stop-color="#0B4AA4" stop-opacity="0.64"/>
<stop offset="0.9999" stop-color="#8154FE"/>
</linearGradient>
<linearGradient id="paint2_linear_55_596" x1="103.504" y1="34.9731" x2="125.997" y2="53.7506" gradientUnits="userSpaceOnUse">
<stop stop-color="#0B4AA4" stop-opacity="0.64"/>
<stop offset="0.9999" stop-color="#8154FE"/>
</linearGradient>
<linearGradient id="paint3_linear_55_596" x1="73.2958" y1="49.6811" x2="90.3434" y2="68.6565" gradientUnits="userSpaceOnUse">
<stop stop-color="#0B4AA4" stop-opacity="0.64"/>
<stop offset="0.9999" stop-color="#8154FE"/>
</linearGradient>
<linearGradient id="paint4_linear_55_596" x1="43.0873" y1="71.7433" x2="49.496" y2="86.01" gradientUnits="userSpaceOnUse">
<stop stop-color="#0B4AA4" stop-opacity="0.64"/>
<stop offset="0.9999" stop-color="#8154FE"/>
</linearGradient>
</defs>
</svg>
