<svg width="23" height="23" viewBox="0 0 23 23" fill="none" xmlns="http://www.w3.org/2000/svg">
<g clip-path="url(#clip0_61_1170)">
<path d="M5.09728 13.8991L4.29669 16.8879L1.37052 16.9498C0.496027 15.3278 0 13.472 0 11.4999C0 9.59294 0.463773 7.79463 1.28584 6.21118H1.28647L3.89158 6.68879L5.03278 9.27827C4.79393 9.9746 4.66374 10.7221 4.66374 11.4999C4.66383 12.3441 4.81675 13.1529 5.09728 13.8991Z" fill="#FBBB00"/>
<path d="M22.7992 9.35156C22.9312 10.0472 23.0001 10.7657 23.0001 11.4999C23.0001 12.3232 22.9135 13.1263 22.7486 13.901C22.1888 16.5372 20.726 18.8391 18.6996 20.468L18.699 20.4674L15.4177 20.3L14.9533 17.4009C16.2979 16.6124 17.3488 15.3783 17.9023 13.901H11.7529V9.35156H17.992H22.7992Z" fill="#518EF8"/>
<path d="M18.6989 20.4674L18.6996 20.4681C16.7288 22.0521 14.2253 22.9999 11.5001 22.9999C7.12061 22.9999 3.31298 20.5521 1.37061 16.9498L5.09737 13.8992C6.06853 16.4911 8.56884 18.3361 11.5001 18.3361C12.76 18.3361 13.9404 17.9956 14.9532 17.401L18.6989 20.4674Z" fill="#28B446"/>
<path d="M18.8402 2.64752L15.1147 5.69753C14.0665 5.0423 12.8273 4.66379 11.4998 4.66379C8.50221 4.66379 5.95514 6.5935 5.03262 9.27834L1.28627 6.21126H1.28564C3.19959 2.52115 7.05523 0 11.4998 0C14.2901 0 16.8486 0.993941 18.8402 2.64752Z" fill="#F14336"/>
</g>
<defs>
<clipPath id="clip0_61_1170">
<rect width="23" height="23" fill="white"/>
</clipPath>
</defs>
</svg>
