<svg width="32" height="28" viewBox="0 0 32 28" fill="none" xmlns="http://www.w3.org/2000/svg">
<path d="M2.42498 12.3132C2.42498 12.3132 16.0335 6.5719 20.7531 4.55026C22.5624 3.74167 28.698 1.15397 28.698 1.15397C28.698 1.15397 31.5299 0.0219428 31.2938 2.77126C31.2151 3.90339 30.5859 7.86564 29.9566 12.1514C29.0126 18.2162 27.99 24.847 27.99 24.847C27.99 24.847 27.8327 26.7069 26.4955 27.0304C25.1582 27.3538 22.9556 25.8983 22.5624 25.5748C22.2477 25.3323 16.6627 21.6933 14.6175 19.9143C14.0669 19.4292 13.4376 18.4589 14.6961 17.3267C17.528 14.6582 20.9104 11.3429 22.9556 9.24041C23.8996 8.26999 24.8435 6.00583 20.9104 8.75515C15.3255 12.7175 9.81919 16.4372 9.81919 16.4372C9.81919 16.4372 8.56057 17.2458 6.20074 16.518C3.84081 15.7904 1.08765 14.8199 1.08765 14.8199C1.08765 14.8199 -0.800122 13.607 2.42498 12.3132Z" fill="white"/>
</svg>
