<svg width="112" height="112" viewBox="0 0 112 112" fill="none" xmlns="http://www.w3.org/2000/svg">
<path d="M56.0037 111.648C25.4206 111.648 0.546875 86.7743 0.546875 56.1912C0.546875 25.6081 25.4206 0.734375 56.0037 0.734375C86.5868 0.734375 111.461 25.6081 111.461 56.1912C111.461 58.4872 109.593 60.3547 107.297 60.3547C105.001 60.3547 103.134 58.4872 103.134 56.1912C103.134 30.2154 81.9948 9.07662 56.019 9.07662C30.0432 9.07662 8.88912 30.2154 8.88912 56.1912C8.88912 82.167 30.0279 103.306 56.0037 103.306C58.2997 103.306 60.1672 105.173 60.1672 107.469C60.1672 109.765 58.2997 111.633 56.0037 111.633V111.648Z" fill="url(#paint0_linear_55_256)"/>
<defs>
<linearGradient id="paint0_linear_55_256" x1="0.546875" y1="13.3382" x2="115.543" y2="18.3717" gradientUnits="userSpaceOnUse">
<stop stop-color="#0B4AA4" stop-opacity="0.64"/>
<stop offset="1" stop-color="#925FE2"/>
</linearGradient>
</defs>
</svg>
