<svg width="49" height="47" viewBox="0 0 49 47" fill="none" xmlns="http://www.w3.org/2000/svg">
<path fill-rule="evenodd" clip-rule="evenodd" d="M24.4712 0.384644C11.1953 0.384644 0.442383 10.9772 0.442383 24.0551C0.442383 34.5293 7.32064 43.3762 16.8721 46.5125C18.0735 46.7196 18.5241 46.0095 18.5241 45.3882C18.5241 44.826 18.4941 42.9619 18.4941 40.9795C12.4568 42.0743 10.8949 39.5297 10.4144 38.1982C10.144 37.5177 8.97262 35.417 7.9514 34.8548C7.11039 34.411 5.90894 33.3162 7.92136 33.2866C9.81363 33.257 11.1653 35.0027 11.6158 35.7128C13.7784 39.293 17.2325 38.287 18.6142 37.6657C18.8244 36.1271 19.4552 35.0915 20.146 34.4997C14.7996 33.908 9.21291 31.8664 9.21291 22.8124C9.21291 20.2383 10.144 18.1079 11.6759 16.451C11.4356 15.8592 10.5946 13.433 11.9162 10.1783C11.9162 10.1783 13.9286 9.55696 18.5241 12.6045C20.4464 12.0719 22.4888 11.8057 24.5313 11.8057C26.5738 11.8057 28.6162 12.0719 30.5385 12.6045C35.134 9.52737 37.1464 10.1783 37.1464 10.1783C38.468 13.433 37.627 15.8592 37.3867 16.451C38.9186 18.1079 39.8497 20.2087 39.8497 22.8124C39.8497 31.896 34.2329 33.908 28.8865 34.4997C29.7576 35.2394 30.5085 36.6597 30.5085 38.8788C30.5085 42.0447 30.4784 44.5893 30.4784 45.3882C30.4784 46.0095 30.929 46.7492 32.1304 46.5125C41.6218 43.3762 48.5001 34.4997 48.5001 24.0551C48.5001 10.9772 37.7472 0.384644 24.4712 0.384644Z" fill="white"/>
</svg>
