<svg width="40" height="30" viewBox="0 0 40 30" fill="none" xmlns="http://www.w3.org/2000/svg">
<path d="M33.2443 2.77348C37.5446 9.18555 39.6683 16.4182 38.8744 24.7446C38.8711 24.7798 38.853 24.8122 38.8244 24.8334C35.5679 27.2585 32.4128 28.7302 29.3019 29.7062C29.2777 29.7136 29.2517 29.7132 29.2278 29.705C29.2038 29.6968 29.1829 29.6812 29.1681 29.6603C28.4494 28.6462 27.7964 27.577 27.2243 26.4543C27.1915 26.3882 27.2215 26.3085 27.2891 26.2825C28.3262 25.8862 29.3124 25.4112 30.261 24.8489C30.3357 24.8045 30.3404 24.6959 30.2714 24.6437C30.0701 24.4922 29.8707 24.3329 29.6798 24.1736C29.6441 24.1441 29.596 24.1383 29.5556 24.1581C23.3971 27.0422 16.6509 27.0422 10.4196 24.1581C10.3791 24.1398 10.331 24.1461 10.2963 24.175C10.1059 24.3343 9.90602 24.4922 9.70659 24.6437C9.63757 24.6959 9.64328 24.8045 9.71849 24.8489C10.6671 25.4006 11.6533 25.8862 12.689 26.2844C12.7561 26.3105 12.788 26.3882 12.7546 26.4543C12.1949 27.5785 11.5419 28.6476 10.8099 29.6618C10.778 29.7028 10.7256 29.7216 10.6761 29.7062C7.57999 28.7302 4.42485 27.2585 1.16833 24.8334C1.1412 24.8122 1.12168 24.7784 1.11883 24.7432C0.455338 17.5409 1.80754 10.2484 6.74373 2.77203C6.75563 2.75224 6.77372 2.7368 6.79466 2.72762C9.22349 1.59716 11.8256 0.765485 14.5452 0.290517C14.5947 0.282794 14.6442 0.305964 14.6699 0.350371C15.0059 0.953735 15.39 1.72749 15.6499 2.35981C18.5166 1.91574 21.4281 1.91574 24.3548 2.35981C24.6146 1.741 24.9854 0.953735 25.32 0.350371C25.3319 0.328341 25.3504 0.310692 25.3728 0.299943C25.3952 0.289194 25.4204 0.285895 25.4447 0.290517C28.1658 0.766933 30.7678 1.59861 33.1948 2.72762C33.2162 2.7368 33.2338 2.75224 33.2443 2.77348V2.77348ZM17.1073 16.4674C17.1373 14.3383 15.6066 12.5765 13.6851 12.5765C11.7794 12.5765 10.2635 14.3228 10.2635 16.4674C10.2635 18.6115 11.8094 20.3579 13.6851 20.3579C15.5914 20.3579 17.1073 18.6115 17.1073 16.4674V16.4674ZM29.7593 16.4674C29.7893 14.3383 28.2586 12.5765 26.3376 12.5765C24.4314 12.5765 22.9155 14.3228 22.9155 16.4674C22.9155 18.6115 24.4614 20.3579 26.3376 20.3579C28.2586 20.3579 29.7593 18.6115 29.7593 16.4674V16.4674Z" fill="white"/>
</svg>
